<svg version="1.1" id="Layer_1" xmlns="http://www.w3.org/2000/svg" xmlns:xlink="http://www.w3.org/1999/xlink" x="0px" y="0px"
	 width="100%" viewBox="0 0 64 64" enable-background="new 0 0 64 64" xml:space="preserve">
<path fill="#4EC2A1" opacity="1.000000" stroke="none" 
	d="
M55.984032,23.611895 
	C55.487682,31.279419 50.480610,36.069931 46.210541,40.977962 
	C43.644367,43.927540 42.661068,46.664433 42.977295,50.289593 
	C43.326820,54.296513 41.959743,56.719265 37.373272,56.024780 
	C36.234390,55.852329 35.047180,55.999084 33.882183,55.999088 
	C24.000069,55.999096 24.343712,55.943779 22.792208,46.305500 
	C22.317677,43.357609 19.916946,40.155128 17.491537,38.186325 
	C8.317804,30.739653 9.877348,20.642941 10.142239,10.855937 
	C10.168463,9.887016 11.796672,8.231254 12.786711,8.148051 
	C16.587404,7.828642 20.436176,7.899660 24.256918,8.062213 
	C26.951136,8.176837 28.127319,9.636945 28.068569,12.559856 
	C27.954264,18.246960 26.621466,24.381674 32.896439,28.310436 
	C40.513721,23.802263 37.239090,15.622080 38.261311,8.031775 
	C42.988388,8.031775 47.777988,7.697048 52.464520,8.244564 
	C53.795696,8.400083 55.577217,11.009409 55.837612,12.696349 
	C56.364498,16.109707 55.991810,19.661924 55.984032,23.611895 
z"/>
</svg>
